<svg width="25" height="25" viewBox="0 0 25 25" fill="none" xmlns="http://www.w3.org/2000/svg">
<path d="M21.5009 0.806152H2.68761C1.20942 0.806152 0 2.01558 0 3.49376V22.307C0 23.7866 1.20942 24.9946 2.68761 24.9946H12.0942V15.588H9.40663V12.2621H12.0942V9.50729C12.0942 6.59929 13.7229 4.55671 17.155 4.55671L19.5779 4.5594V8.06001H17.9694C16.6336 8.06001 16.1257 9.06249 16.1257 9.9924V12.2634H19.5765L18.8133 15.588H16.1257V24.9946H21.5009C22.9791 24.9946 24.1885 23.7866 24.1885 22.307V3.49376C24.1885 2.01558 22.9791 0.806152 21.5009 0.806152Z" fill="white"/>
</svg>
