<svg width="33" height="33" viewBox="0 0 33 33" fill="none" xmlns="http://www.w3.org/2000/svg">
<path fill-rule="evenodd" clip-rule="evenodd" d="M-0.00012207 16.5C-0.00012207 7.3873 7.38718 0 16.4999 0C25.6126 0 32.9999 7.3873 32.9999 16.5C32.9999 25.6127 25.6126 33 16.4999 33C7.38718 33 -0.00012207 25.6127 -0.00012207 16.5ZM13.4807 16.0288V17.8203H16.4539C16.334 18.5891 15.5552 20.0745 13.4807 20.0745C11.6907 20.0745 10.2303 18.5965 10.2303 16.7753C10.2303 14.954 11.6907 13.476 13.4807 13.476C14.4992 13.476 15.1807 13.909 15.5701 14.2822L16.9931 12.9162C16.0794 12.0653 14.8961 11.5503 13.4807 11.5503C10.5823 11.5503 8.23823 13.8866 8.23823 16.7753C8.23823 19.6639 10.5823 22.0003 13.4807 22.0003C16.5063 22.0003 18.5134 19.8804 18.5134 16.8947C18.5134 16.5513 18.4759 16.2901 18.431 16.0288H13.4807ZM23.2163 16.029H24.7141V17.5219H23.2163V19.0147H21.7184V17.5219H20.2206V16.029H21.7184V14.5362H23.2163V16.029Z" fill="white"/>
</svg>
