<svg width="26" height="26" viewBox="0 0 26 26" fill="none" xmlns="http://www.w3.org/2000/svg">
<path d="M25.9222 7.58165C25.9007 6.51145 25.698 5.45263 25.3225 4.45022C24.9986 3.58941 24.4908 2.80962 23.8346 2.16522C23.1902 1.50897 22.4104 1.00117 21.5496 0.677235C20.5471 0.301789 19.4883 0.0990381 18.4181 0.0776038C17.0421 0.0148786 16.6028 0 13.0993 0C9.59566 0 9.15638 0.0148786 7.78038 0.0776038C6.71018 0.0990381 5.65136 0.301789 4.64895 0.677235C3.78814 1.00117 3.00835 1.50897 2.36395 2.16522C1.7077 2.80962 1.1999 3.58941 0.875965 4.45022C0.500519 5.45263 0.297769 6.51145 0.276334 7.58165C0.213609 8.95765 0.19873 9.39693 0.19873 12.9005C0.19873 16.4041 0.213609 16.8434 0.276334 18.2194C0.297769 19.2896 0.500519 20.3484 0.875965 21.3508C1.1999 22.2116 1.7077 22.9914 2.36395 23.6358C3.00833 24.2921 3.78813 24.7999 4.64895 25.1238C5.65136 25.4993 6.71018 25.702 7.78038 25.7234C9.15638 25.7863 9.59566 25.801 13.0993 25.801C16.6028 25.801 17.0421 25.7863 18.4181 25.7234C19.4883 25.702 20.5471 25.4993 21.5496 25.1238C22.4065 24.7924 23.1848 24.2855 23.8345 23.6358C24.4843 22.9861 24.9911 22.2078 25.3225 21.3508C25.698 20.3484 25.9007 19.2896 25.9222 18.2194C25.9849 16.8434 25.9998 16.4041 25.9998 12.9005C25.9998 9.39693 25.9849 8.95765 25.9222 7.58165ZM23.6002 18.1135C23.5905 18.9315 23.4402 19.7418 23.1559 20.5089C22.9413 21.0652 22.6126 21.5705 22.1909 21.9922C21.7693 22.4139 21.264 22.7426 20.7076 22.9572C19.9405 23.2415 19.1302 23.3918 18.3122 23.4015C16.952 23.4635 16.5441 23.4766 13.0993 23.4766C9.65444 23.4766 9.24648 23.4635 7.88632 23.4014C7.0683 23.3918 6.25803 23.2415 5.49093 22.9572C4.93057 22.7504 4.42369 22.4207 4.00758 21.9922C3.57909 21.5761 3.24934 21.0692 3.04258 20.5089C2.75827 19.7418 2.608 18.9315 2.59831 18.1135C2.53631 16.7531 2.52318 16.3452 2.52318 12.9005C2.52318 9.45588 2.53631 9.04794 2.59833 7.68759C2.60802 6.86957 2.75829 6.0593 3.04258 5.2922C3.24934 4.73184 3.57908 4.22496 4.00757 3.80885C4.42368 3.38036 4.93056 3.05061 5.49093 2.84385C6.25803 2.55955 7.0683 2.40928 7.88632 2.39958C9.24667 2.33757 9.65461 2.32444 13.0993 2.32444C16.5439 2.32444 16.9518 2.33757 18.3122 2.3996C19.1302 2.40929 19.9405 2.55957 20.7076 2.84386C21.2679 3.05062 21.7748 3.38037 22.1909 3.80885C22.6194 4.22496 22.9492 4.73184 23.1559 5.2922C23.4402 6.05929 23.5905 6.86957 23.6002 7.68759C23.6622 9.04788 23.6753 9.45597 23.6753 12.9005C23.6753 16.3451 23.6622 16.7531 23.6002 18.1135ZM13.0993 6.2759C11.789 6.2759 10.5082 6.66443 9.41881 7.39235C8.3294 8.12028 7.4803 9.1549 6.9789 10.3654C6.4775 11.5759 6.34631 12.9079 6.60192 14.1929C6.85754 15.478 7.48847 16.6584 8.41494 17.5848C9.34141 18.5113 10.5218 19.1422 11.8069 19.3979C13.0919 19.6535 14.4239 19.5223 15.6344 19.0209C16.8449 18.5195 17.8795 17.6704 18.6074 16.581C19.3353 15.4916 19.7239 14.2107 19.7239 12.9005C19.7239 11.1436 19.0259 9.45858 17.7835 8.21623C16.5412 6.97388 14.8562 6.27592 13.0993 6.2759ZM13.0993 17.2007C12.2488 17.2007 11.4174 16.9485 10.7102 16.476C10.003 16.0035 9.45188 15.3319 9.12641 14.5461C8.80094 13.7604 8.71578 12.8958 8.88171 12.0616C9.04763 11.2274 9.45718 10.4612 10.0586 9.85984C10.66 9.25845 11.4262 8.8489 12.2603 8.68298C13.0945 8.51705 13.9591 8.60221 14.7449 8.92768C15.5306 9.25315 16.2022 9.80431 16.6747 10.5115C17.1472 11.2186 17.3994 12.05 17.3994 12.9005C17.3994 14.041 16.9464 15.1348 16.1399 15.9412C15.3335 16.7476 14.2397 17.2007 13.0993 17.2007ZM21.5336 6.01422C21.5336 6.3204 21.4429 6.6197 21.2727 6.87428C21.1026 7.12886 20.8609 7.32728 20.578 7.44445C20.2951 7.56162 19.9839 7.59227 19.6836 7.53254C19.3833 7.47281 19.1074 7.32537 18.8909 7.10887C18.6744 6.89237 18.527 6.61653 18.4673 6.31624C18.4075 6.01594 18.4382 5.70468 18.5554 5.42181C18.6725 5.13893 18.8709 4.89716 19.1255 4.72706C19.3801 4.55695 19.6794 4.46616 19.9856 4.46616C20.3962 4.46616 20.7899 4.62926 21.0802 4.91958C21.3705 5.2099 21.5336 5.60365 21.5336 6.01422Z" fill="white"/>
</svg>
