<svg width="33" height="33" viewBox="0 0 33 33" fill="none" xmlns="http://www.w3.org/2000/svg">
<path fill-rule="evenodd" clip-rule="evenodd" d="M16.5001 0C7.38742 0 0.00012207 7.3873 0.00012207 16.5C0.00012207 25.6127 7.38742 33 16.5001 33C25.6128 33 33.0001 25.6127 33.0001 16.5C33.0001 7.3873 25.6128 0 16.5001 0ZM7.92116 13.666H11.6604V24.901H7.92116V13.666ZM11.9067 10.1906C11.8825 9.08903 11.0947 8.25 9.81555 8.25C8.53638 8.25 7.70009 9.08903 7.70009 10.1906C7.70009 11.2694 8.51166 12.1326 9.76701 12.1326H9.79091C11.0947 12.1326 11.9067 11.2694 11.9067 10.1906ZM20.8402 13.4023C23.3008 13.4023 25.1455 15.0084 25.1455 18.4593L25.1453 24.901H21.4062V18.8904C21.4062 17.3806 20.8651 16.3504 19.5115 16.3504C18.4784 16.3504 17.8631 17.0449 17.5929 17.7157C17.494 17.9561 17.4697 18.2911 17.4697 18.6268V24.9013H13.73C13.73 24.9013 13.7793 14.7206 13.73 13.6664H17.4697V15.2578C17.966 14.4928 18.8549 13.4023 20.8402 13.4023Z" fill="white"/>
</svg>
