<svg width="33" height="33" viewBox="0 0 33 33" fill="none" xmlns="http://www.w3.org/2000/svg">
<path fill-rule="evenodd" clip-rule="evenodd" d="M16.5 0C7.3873 0 0 7.3873 0 16.5C0 25.6127 7.3873 33 16.5 33C25.6127 33 33 25.6127 33 16.5C33 7.3873 25.6127 0 16.5 0ZM16.0409 13.9825L16.0063 13.4115C15.9024 11.9318 16.8142 10.5802 18.2569 10.0558C18.7878 9.8694 19.688 9.84609 20.2766 10.0092C20.5074 10.0791 20.946 10.3122 21.2576 10.5219L21.8232 10.9064L22.4464 10.7083C22.7926 10.6035 23.2543 10.4287 23.462 10.3122C23.6582 10.2073 23.8314 10.149 23.8314 10.184C23.8314 10.3821 23.4043 11.0579 23.0465 11.4307C22.5618 11.9551 22.7003 12.0017 23.6813 11.6521C24.2699 11.454 24.2815 11.454 24.1661 11.6754C24.0968 11.7919 23.739 12.1998 23.3582 12.5726C22.7118 13.2135 22.6772 13.2834 22.6772 13.8194C22.6772 14.6466 22.2848 16.3711 21.8924 17.3149C21.1653 19.086 19.6072 20.9153 18.0491 21.8358C15.8562 23.1291 12.9363 23.4554 10.478 22.698C9.65851 22.4417 8.25046 21.7892 8.25046 21.6726C8.25046 21.6377 8.67749 21.5911 9.19685 21.5794C10.2817 21.5561 11.3666 21.2532 12.29 20.7172L12.9132 20.3443L12.1976 20.0997C11.182 19.7501 10.2702 18.9461 10.0394 18.1888C9.97013 17.9441 9.99321 17.9324 10.6395 17.9324L11.3089 17.9208L10.7434 17.6528C10.074 17.3149 9.46231 16.7439 9.16223 16.1614C8.94294 15.7419 8.66595 14.6816 8.74674 14.6C8.76982 14.5651 9.01219 14.635 9.28919 14.7282C10.0855 15.0195 10.1894 14.9496 9.72776 14.4602C8.86215 13.5747 8.5967 12.258 9.01219 11.0113L9.2084 10.452L9.97013 11.2094C11.5282 12.7357 13.3633 13.6446 15.4638 13.9126L16.0409 13.9825Z" fill="white"/>
</svg>
