<svg width="30" height="30" viewBox="0 0 30 30" fill="none" xmlns="http://www.w3.org/2000/svg">
<circle cx="15" cy="15" r="15" fill="white"/>
<g filter="url(#filter0_d)">
<path d="M12.0221 22C10.1736 22 8.45039 21.4682 7 20.5506C8.23142 20.6294 10.4046 20.4406 11.7563 19.1653C9.7229 19.073 8.80586 17.5304 8.68625 16.8712C8.85903 16.9371 9.68303 17.0162 10.1482 16.8316C7.80908 16.2515 7.45024 14.2211 7.52999 13.6014C7.96857 13.9047 8.71283 14.0101 9.00522 13.9838C6.8256 12.4412 7.60973 10.1207 7.99515 9.61968C9.55933 11.7632 11.9035 12.967 14.8036 13.034C14.749 12.7968 14.7201 12.5498 14.7201 12.2961C14.7201 10.4757 16.2077 9 18.0427 9C19.0015 9 19.8654 9.40286 20.4718 10.0473C21.1125 9.89876 22.0767 9.55113 22.5481 9.25051C22.3105 10.0943 21.5708 10.7982 21.1234 11.0591C21.1271 11.068 21.1197 11.0502 21.1234 11.0591C21.5164 11.0003 22.5799 10.7982 23 10.5162C22.7922 10.9903 22.008 11.7785 21.3644 12.2197C21.4842 17.4432 17.4437 22 12.0221 22Z" fill="#47ACDF"/>
</g>
<defs>
<filter id="filter0_d" x="3" y="9" width="24" height="21" filterUnits="userSpaceOnUse" color-interpolation-filters="sRGB">
<feFlood flood-opacity="0" result="BackgroundImageFix"/>
<feColorMatrix in="SourceAlpha" type="matrix" values="0 0 0 0 0 0 0 0 0 0 0 0 0 0 0 0 0 0 127 0"/>
<feOffset dy="4"/>
<feGaussianBlur stdDeviation="2"/>
<feColorMatrix type="matrix" values="0 0 0 0 0 0 0 0 0 0 0 0 0 0 0 0 0 0 0.1 0"/>
<feBlend mode="normal" in2="BackgroundImageFix" result="effect1_dropShadow"/>
<feBlend mode="normal" in="SourceGraphic" in2="effect1_dropShadow" result="shape"/>
</filter>
</defs>
</svg>
